<svg width="22" height="22" viewBox="0 0 22 22" fill="none" xmlns="http://www.w3.org/2000/svg">
<path d="M2.52711 18.8692C2.39177 18.8226 2.27435 18.7349 2.19123 18.6184C2.10812 18.5019 2.06346 18.3623 2.06348 18.2191C2.06348 15.0781 2.69426 12.5662 3.93906 10.7525C5.44297 8.56105 7.81527 7.38112 11.001 7.2346V3.78163C11.001 3.64701 11.0405 3.51536 11.1147 3.403C11.1888 3.29064 11.2943 3.20253 11.4181 3.14959C11.5419 3.09665 11.6785 3.08121 11.8109 3.10519C11.9434 3.12917 12.0659 3.19151 12.1633 3.28448L19.7258 10.5032C19.793 10.5674 19.8465 10.6446 19.883 10.73C19.9196 10.8155 19.9384 10.9074 19.9384 11.0004C19.9384 11.0933 19.9196 11.1853 19.883 11.2707C19.8465 11.3562 19.793 11.4333 19.7258 11.4975L12.1633 18.7163C12.0659 18.8093 11.9434 18.8716 11.8109 18.8956C11.6785 18.9196 11.5419 18.9041 11.4181 18.8512C11.2943 18.7982 11.1888 18.7101 11.1147 18.5978C11.0405 18.4854 11.001 18.3538 11.001 18.2191V14.7915C9.06738 14.85 7.60644 15.1632 6.44328 15.7643C5.18644 16.414 4.27508 17.3847 3.29281 18.6432C3.20469 18.7561 3.08355 18.8386 2.94628 18.8792C2.80901 18.9199 2.66247 18.9167 2.52711 18.8701V18.8692Z" fill="#709775"/>
</svg>
