<svg width="22" height="22" viewBox="0 0 22 22" fill="none" xmlns="http://www.w3.org/2000/svg">
<path d="M2.52717 18.8693C2.39183 18.8227 2.27441 18.735 2.1913 18.6184C2.10818 18.5019 2.06352 18.3623 2.06354 18.2192C2.06354 15.0782 2.69432 12.5662 3.93912 10.7525C5.44303 8.56109 7.81533 7.38117 11.001 7.23465V3.78168C11.001 3.64706 11.0406 3.5154 11.1147 3.40305C11.1889 3.29069 11.2944 3.20257 11.4182 3.14963C11.5419 3.09669 11.6785 3.08125 11.811 3.10523C11.9435 3.12921 12.066 3.19156 12.1633 3.28453L19.7258 10.5033C19.793 10.5675 19.8465 10.6446 19.8831 10.7301C19.9196 10.8155 19.9385 10.9075 19.9385 11.0004C19.9385 11.0934 19.9196 11.1853 19.8831 11.2708C19.8465 11.3562 19.793 11.4334 19.7258 11.4976L12.1633 18.7163C12.066 18.8093 11.9435 18.8716 11.811 18.8956C11.6785 18.9196 11.5419 18.9042 11.4182 18.8512C11.2944 18.7983 11.1889 18.7102 11.1147 18.5978C11.0406 18.4855 11.001 18.3538 11.001 18.2192V14.7916C9.06744 14.85 7.60651 15.1632 6.44334 15.7644C5.18651 16.4141 4.27514 17.3847 3.29287 18.6433C3.20475 18.7561 3.08361 18.8386 2.94634 18.8793C2.80907 18.92 2.66253 18.9168 2.52717 18.8702V18.8693Z" fill="#709775"/>
</svg>
