<svg width="90" height="90" viewBox="0 0 90 90" fill="none" xmlns="http://www.w3.org/2000/svg">
<path d="M25.974 66.2484C25.974 67.1733 25.6066 68.0604 24.9526 68.7144C24.2985 69.3685 23.4115 69.7359 22.4865 69.7359C21.5616 69.7359 20.6745 69.3685 20.0205 68.7144C19.3665 68.0604 18.999 67.1733 18.999 66.2484C18.999 65.3234 19.3665 64.4364 20.0205 63.7824C20.6745 63.1283 21.5616 62.7609 22.4865 62.7609C23.4115 62.7609 24.2985 63.1283 24.9526 63.7824C25.6066 64.4364 25.974 65.3234 25.974 66.2484ZM30.5303 78.1734C31.4552 78.1734 32.3423 77.806 32.9963 77.1519C33.6503 76.4979 34.0178 75.6108 34.0178 74.6859C34.0178 73.7609 33.6503 72.8739 32.9963 72.2199C32.3423 71.5658 31.4552 71.1984 30.5303 71.1984C29.6053 71.1984 28.7183 71.5658 28.0642 72.2199C27.4102 72.8739 27.0428 73.7609 27.0428 74.6859C27.0428 75.6108 27.4102 76.4979 28.0642 77.1519C28.7183 77.806 29.6053 78.1734 30.5303 78.1734ZM23.1615 77.189C23.1615 78.114 22.7941 79.001 22.1401 79.655C21.486 80.3091 20.599 80.6765 19.674 80.6765C18.7491 80.6765 17.862 80.3091 17.208 79.655C16.554 79.001 16.1865 78.114 16.1865 77.189C16.1865 76.2641 16.554 75.377 17.208 74.723C17.862 74.0689 18.7491 73.7015 19.674 73.7015C20.599 73.7015 21.486 74.0689 22.1401 74.723C22.7941 75.377 23.1615 76.2641 23.1615 77.189ZM39.5303 25.875C37.6459 25.875 36.0709 27.1687 35.649 28.9125C35.5365 29.3906 35.9021 29.8968 36.4084 29.8968H37.6459C37.5437 29.5167 37.5303 29.1181 37.6067 28.732C37.6831 28.3458 37.8472 27.9824 38.0864 27.6698C38.3256 27.3572 38.6335 27.1037 38.9863 26.9291C39.3391 26.7544 39.7273 26.6632 40.1209 26.6625C40.458 26.6587 40.7925 26.7223 41.1048 26.8496C41.417 26.9769 41.7006 27.1653 41.939 27.4037C42.1775 27.6421 42.3658 27.9257 42.4931 28.238C42.6204 28.5502 42.684 28.8847 42.6803 29.2218C42.6803 29.4468 42.6521 29.6718 42.5959 29.8968H42.8209C43.2428 29.8968 43.5521 29.5312 43.4678 29.1093C43.296 28.1935 42.8073 27.3675 42.0873 26.776C41.3673 26.1846 40.462 25.8656 39.5303 25.875ZM53.2834 25.875C55.1678 25.875 56.7428 27.1687 57.1646 28.9125C57.2771 29.4187 56.9115 29.8968 56.4053 29.8968H55.1678C55.27 29.5167 55.2834 29.1181 55.207 28.732C55.1306 28.3458 54.9665 27.9824 54.7272 27.6698C54.488 27.3572 54.1801 27.1037 53.8274 26.9291C53.4746 26.7544 53.0864 26.6632 52.6928 26.6625C52.2991 26.6632 51.9109 26.7544 51.5582 26.9291C51.2054 27.1037 50.8975 27.3572 50.6583 27.6698C50.4191 27.9824 50.2549 28.3458 50.1786 28.732C50.1022 29.1181 50.1156 29.5167 50.2178 29.8968H49.9928C49.8946 29.8992 49.7971 29.8792 49.7078 29.8382C49.6186 29.7973 49.5397 29.7366 49.4774 29.6607C49.4151 29.5848 49.3708 29.4957 49.348 29.4002C49.3252 29.3047 49.3245 29.2052 49.3459 29.1093C49.7115 27.2531 51.3428 25.875 53.2834 25.875Z" fill="#93B1D8"/>
<path d="M40.1485 27.7313C40.4007 27.7287 40.6492 27.7918 40.8696 27.9145C41.0899 28.0372 41.2745 28.2153 41.4051 28.431C41.5357 28.6468 41.6078 28.8929 41.6143 29.145C41.6208 29.3971 41.5615 29.6466 41.4423 29.8688H38.8548C38.7393 29.6488 38.6816 29.4031 38.687 29.1547C38.6924 28.9063 38.7608 28.6633 38.8857 28.4485C38.9237 28.4966 38.971 28.5364 39.0249 28.5655C39.0788 28.5946 39.1381 28.6125 39.1991 28.6179C39.2602 28.6233 39.3216 28.6162 39.3798 28.597C39.438 28.5778 39.4917 28.5469 39.5375 28.5063C39.5833 28.4656 39.6204 28.416 39.6464 28.3606C39.6723 28.3051 39.6867 28.2449 39.6886 28.1837C39.6906 28.1224 39.6799 28.0614 39.6575 28.0045C39.635 27.9475 39.6011 27.8957 39.5579 27.8522C39.7443 27.7717 39.9454 27.7306 40.1485 27.7313ZM52.6923 27.7313C52.5166 27.7315 52.3423 27.7629 52.1776 27.8241C52.2321 27.8661 52.2764 27.9201 52.3068 27.9819C52.3372 28.0437 52.3531 28.1116 52.3531 28.1805C52.3531 28.2493 52.3374 28.3173 52.307 28.3791C52.2766 28.4409 52.2325 28.495 52.178 28.537C52.1234 28.5791 52.06 28.6081 51.9925 28.6218C51.925 28.6354 51.8552 28.6334 51.7886 28.6159C51.722 28.5984 51.6603 28.5658 51.6083 28.5207C51.5563 28.4756 51.5153 28.4191 51.4885 28.3557C51.3367 28.5756 51.248 28.8329 51.2322 29.0997C51.2163 29.3664 51.2738 29.6324 51.3985 29.8688H53.986C54.1053 29.6466 54.1646 29.3971 54.1581 29.145C54.1516 28.8929 54.0794 28.6468 53.9488 28.431C53.8183 28.2153 53.6337 28.0372 53.4133 27.9145C53.193 27.7918 52.9445 27.7287 52.6923 27.7313ZM45.5204 28.9969L44.0298 33.8063C43.7204 34.7907 44.4516 35.8032 45.4923 35.8032H47.686C48.7266 35.8032 49.4579 34.7907 49.1485 33.8063L47.6579 28.9969C47.3485 27.9282 45.8579 27.9282 45.5204 28.9969ZM42.2579 37.4626C43.4673 38.1094 44.9016 38.4751 46.4204 38.4751C47.9391 38.4751 49.3735 38.1094 50.5829 37.4626C50.9766 37.2657 51.4266 37.7157 51.1735 38.1094C50.161 39.6563 48.4173 40.6969 46.4204 40.6969C44.4235 40.6969 42.6798 39.6563 41.6673 38.1094C41.4141 37.7157 41.836 37.2376 42.2579 37.4626ZM36.0423 22.5394C35.8822 22.6816 35.7821 22.8793 35.7624 23.0925C35.7426 23.3057 35.8047 23.5184 35.9359 23.6875C36.0672 23.8567 36.2578 23.9696 36.4692 24.0035C36.6806 24.0373 36.897 23.9895 37.0744 23.8697L37.0801 23.8641L37.0969 23.8529L37.1251 23.8304C37.1701 23.8022 37.2404 23.7544 37.336 23.6982C38.5161 23.0121 39.887 22.7278 41.2426 22.8882C41.4579 22.9016 41.6703 22.8321 41.8359 22.6938C42.0016 22.5555 42.108 22.359 42.1332 22.1447C42.1584 21.9303 42.1005 21.7145 41.9715 21.5415C41.8425 21.3686 41.6521 21.2516 41.4394 21.2147C39.7138 21.0114 37.9689 21.3768 36.4698 22.2554C36.3673 22.3167 36.267 22.3815 36.1688 22.4494L36.0423 22.5394ZM56.9391 23.7207C57.0758 23.5444 57.1372 23.3212 57.1098 23.0999C57.0824 22.8785 56.9684 22.677 56.7929 22.5394L56.7873 22.5338L56.7788 22.5282L56.7507 22.5085C56.628 22.4157 56.4993 22.3312 56.3654 22.2554C54.8662 21.3768 53.1214 21.0114 51.3957 21.2147C51.1876 21.2562 51.0028 21.3746 50.878 21.5462C50.7533 21.7179 50.6978 21.9302 50.7226 22.141C50.7475 22.3517 50.8508 22.5454 51.012 22.6833C51.1732 22.8213 51.3805 22.8934 51.5926 22.8854C52.9494 22.7253 54.3214 23.0105 55.5019 23.6982C55.5885 23.7502 55.6729 23.8055 55.7551 23.8641L55.7607 23.8697C55.9373 24.0061 56.1607 24.067 56.3821 24.0391C56.6035 24.0112 56.802 23.8967 56.9391 23.7207Z" fill="#93B1D8"/>
<path d="M26.3533 10.1616C34.284 5.34597 43.386 2.80362 52.6642 2.81252C54.6109 2.81178 56.5386 3.19466 58.3372 3.93927C60.1358 4.68387 61.7701 5.77562 63.1465 7.1521C64.523 8.52859 65.6148 10.1628 66.3594 11.9614C67.104 13.76 67.4869 15.6878 67.4861 17.6344C67.4861 19.0266 66.8983 20.2753 65.9674 21.1585V25.0397C67.1035 26.4303 67.7028 28.1825 67.6564 29.9776C67.6099 31.7728 66.9208 33.4916 65.7142 34.8216V36.2532C65.7149 38.0302 65.1862 39.7672 64.1955 41.2425C63.7933 42.5363 63.2027 43.7457 62.463 44.8481C63.8074 45.5766 65.0955 46.395 66.3217 47.2922C65.9642 48.5367 65.9583 49.8559 66.3048 51.1034C66.6514 52.351 67.3367 53.4782 68.2849 54.36C68.1077 55.0069 67.9502 55.6538 67.8067 56.3006C65.3659 53.4343 62.3767 51.0848 59.0149 49.3903C58.8494 51.1436 58.104 52.7916 56.8968 54.0737C55.6896 55.3558 54.0894 56.1988 52.3492 56.4694C53.2352 57.6844 53.7611 59.1835 53.7611 60.8063V65.5032C51.8094 65.5009 49.9382 64.7254 48.5571 63.3464C47.176 61.9674 46.3976 60.0973 46.3924 58.1456C46.3872 60.0973 45.6088 61.9674 44.2277 63.3464C42.8466 64.7254 40.9753 65.5009 39.0236 65.5032V60.8063C39.0236 59.1835 39.5496 57.6844 40.4383 56.4694C38.6977 56.1994 37.0968 55.3566 35.889 54.0744C34.6812 52.7923 33.9355 51.144 33.7699 49.3903C29.8272 51.3773 26.4049 54.2603 23.7771 57.8081C26.3923 58.1955 28.8545 59.2815 30.9038 60.9517C32.9532 62.6219 34.5137 64.8142 35.4208 67.2975L40.6239 81.5625H64.9127C64.987 81.1742 65.1248 80.8008 65.3205 80.4572C65.0109 79.9264 64.8473 79.3231 64.8463 78.7086C64.8453 78.0941 65.007 77.4903 65.3149 76.9585C65.007 76.4267 64.8453 75.8228 64.8463 75.2083C64.8473 74.5938 65.0109 73.9905 65.3205 73.4597C64.9875 72.8951 64.8226 72.2473 64.8452 71.5922C64.8958 69.7556 66.3499 68.3663 68.0599 68.1919C68.1765 68.1617 68.2966 68.1466 68.4171 68.1469H69.8796C69.4538 63.2985 69.9501 58.4134 71.3421 53.7497C70.2158 52.9754 69.4108 51.8169 69.0778 50.4913C68.7449 49.1658 68.9069 47.7643 69.5336 46.5497C71.3083 42.8288 74.7002 40.936 78.5758 40.6828H78.6686C79.1777 40.6828 79.7064 40.8431 80.1733 41.2453L80.2014 41.2678C80.5633 41.5959 80.8069 42.0341 80.8944 42.5146C80.9818 42.9952 80.9083 43.4912 80.6852 43.9256L80.6711 43.9566L80.6542 43.9847C79.9455 45.2447 79.7233 46.4456 80.0439 47.9869L80.0749 48.1275V48.1641C80.2581 49.2133 80.139 50.2929 79.7317 51.277C79.3243 52.261 78.6454 53.1089 77.7742 53.7216C78.6219 56.5858 79.1399 59.5374 79.3183 62.5191C80.3868 62.9239 81.3071 63.6439 81.957 64.5837C82.607 65.5235 82.956 66.6386 82.9577 67.7813V81.8719C82.9574 83.2286 82.4329 84.5327 81.4937 85.5118C80.5544 86.4908 79.2732 87.0691 77.9177 87.1256C77.7254 87.1666 77.5293 87.1874 77.3327 87.1875H11.9955C11.4103 87.1873 10.8398 87.0046 10.3634 86.6648C9.887 86.325 9.52844 85.8451 9.33768 85.2919L6.58143 77.3044L6.57862 77.3016C3.22049 67.5 9.12674 56.9138 18.7849 55.111C21.8548 50.7548 25.9085 47.1839 30.6171 44.6878C30.0879 43.8794 29.6449 43.0179 29.2952 42.1172C27.8608 40.4896 27.0698 38.3945 27.0705 36.225V34.6135C25.9332 33.2616 25.3105 31.5511 25.3127 29.7844C25.3127 27.945 25.9764 26.2603 27.0705 24.9581V22.2385C25.7445 21.846 24.5812 21.0346 23.7548 19.9258C22.9284 18.817 22.4833 17.4704 22.4861 16.0875C22.4861 13.8431 23.6449 11.7619 25.6108 10.6031L25.6136 10.6003L26.3533 10.1616ZM37.6286 81.5625L32.7799 68.265C31.8997 65.853 30.2605 63.7917 28.1086 62.3909C25.9567 60.9901 23.4083 60.3255 20.8464 60.4969C20.7951 60.505 20.7435 60.5116 20.6917 60.5166C14.1752 61.1522 9.45862 68.3438 11.8999 75.4763L14.0008 81.5625H37.6286ZM77.3299 70.9594H68.6955C68.6029 70.9781 68.5087 70.9875 68.4142 70.9875C67.9727 70.9875 67.6633 71.3307 67.6549 71.6681V71.685C67.6528 71.806 67.682 71.9256 67.7396 72.032C67.7973 72.1384 67.8814 72.2281 67.9839 72.2925C68.1777 72.4215 68.3364 72.5966 68.4458 72.8021C68.5552 73.0076 68.6119 73.237 68.6108 73.4698C68.6097 73.7026 68.5508 73.9314 68.4394 74.1358C68.328 74.3402 68.1677 74.5138 67.9727 74.641C67.8774 74.7019 67.7985 74.7853 67.7431 74.8839C67.6877 74.9825 67.6574 75.0932 67.6549 75.2063C67.6549 75.4594 67.7758 75.6478 67.9446 75.7547C68.1459 75.8793 68.3125 76.0527 68.4289 76.2588C68.5454 76.4649 68.6079 76.6971 68.6107 76.9339C68.6135 77.1706 68.5565 77.4042 68.445 77.613C68.3335 77.8219 68.171 77.9991 67.9727 78.1285C67.8774 78.1894 67.7985 78.2728 67.7431 78.3714C67.6877 78.47 67.6574 78.5807 67.6549 78.6938C67.6549 78.9469 67.7758 79.1353 67.9446 79.2422C68.1392 79.3627 68.3014 79.5288 68.4172 79.7262C68.5331 79.9236 68.599 80.1463 68.6092 80.3749C68.6195 80.6035 68.5738 80.8312 68.4761 81.0382C68.3784 81.2451 68.2316 81.4251 68.0486 81.5625H76.7674C76.9474 81.526 77.1358 81.5063 77.3299 81.5063V70.9594ZM76.4411 61.7738C76.1989 58.9516 75.6327 56.1667 74.7536 53.4741L74.5596 52.8778L74.3599 53.4966C73.4797 56.1815 72.9116 58.9589 72.6667 61.7738H76.4411ZM41.5267 48.9938C41.9819 49.9598 42.7019 50.7769 43.603 51.3499C44.5042 51.923 45.5495 52.2285 46.6174 52.231C48.8646 52.231 50.8136 50.8978 51.7136 48.9825C50.9059 49.1421 50.0845 49.2221 49.2611 49.2216H43.9174C43.115 49.2223 42.3145 49.146 41.5267 48.9938ZM33.1596 21.0938C33.168 21.3075 33.1792 21.5213 33.1961 21.7406L33.1989 21.7603L34.2649 37.9941C34.5924 40.323 35.7488 42.4557 37.5218 44.0009C39.2948 45.5461 41.5655 46.4001 43.9174 46.4063H49.2611C51.6138 46.4049 53.8867 45.5529 55.6607 44.0075C57.4346 42.462 58.5899 40.3272 58.9136 37.9969L59.9261 21.735V21.7013C59.9514 21.4988 59.9683 21.2963 59.9796 21.0938H33.1596ZM72.0621 47.7788L72.0508 47.8069L72.0368 47.8294C71.8545 48.1803 71.7485 48.5658 71.7256 48.9605C71.7027 49.3553 71.7635 49.7504 71.904 50.1201C72.0445 50.4897 72.2614 50.8255 72.5407 51.1054C72.82 51.3853 73.1553 51.6031 73.5246 51.7444L74.5511 52.1381L75.5721 51.7331C76.0646 51.5369 76.4917 51.2054 76.8039 50.7769C76.6233 50.8186 76.4381 50.8375 76.2527 50.8331C75.0152 50.8331 74.0589 49.7644 74.0589 48.5269C74.0589 47.6831 73.3839 47.0082 72.5402 47.0082H72.4783C72.3256 47.2572 72.1867 47.5145 72.0621 47.7788Z" fill="#93B1D8"/>
</svg>
