<svg width="41" height="43" viewBox="0 0 41 43" fill="none" xmlns="http://www.w3.org/2000/svg">
<path d="M37.1188 36.3529C37.4396 36.6893 37.6201 37.1472 37.6201 37.625C37.6201 38.1027 37.4396 38.5606 37.1188 38.897C36.8005 39.2362 36.3674 39.427 35.9155 39.427C35.4636 39.427 35.0304 39.2362 34.7121 38.897L20.6622 24.0262L6.61218 38.897C6.29395 39.2362 5.86076 39.427 5.40886 39.427C4.95696 39.427 4.52377 39.2362 4.20555 38.897C3.8847 38.5606 3.70422 38.1027 3.70422 37.625C3.70422 37.1472 3.8847 36.6893 4.20555 36.3529L18.2725 21.5L4.20555 6.64705C3.77564 6.19258 3.60775 5.53017 3.7651 4.90935C3.92246 4.28853 4.38116 3.80362 4.96842 3.63727C5.55568 3.47092 6.18227 3.64841 6.61218 4.10288L20.6622 18.9737L34.7121 4.10288C35.3767 3.40033 36.4542 3.40033 37.1188 4.10288C37.7833 4.80544 37.7833 5.9445 37.1188 6.64705L23.0518 21.5L37.1188 36.3529Z" fill="#231F20"/>
</svg>
