<svg width="18" height="18" viewBox="0 0 18 18" fill="none" xmlns="http://www.w3.org/2000/svg">
<path d="M12.2815 2.43812C13.151 2.44071 13.9842 2.78727 14.599 3.40211C15.2138 4.01694 15.5604 4.85009 15.563 5.7196V12.2819C15.5604 13.1514 15.2138 13.9845 14.599 14.5994C13.9842 15.2142 13.151 15.5608 12.2815 15.5634H5.71923C4.84973 15.5608 4.01658 15.2142 3.40174 14.5994C2.78691 13.9845 2.44035 13.1514 2.43775 12.2819V5.7196C2.44035 4.85009 2.78691 4.01694 3.40174 3.40211C4.01658 2.78727 4.84973 2.44071 5.71923 2.43812H12.2815ZM12.2815 1.12573H5.71923C3.19255 1.12573 1.12537 3.19292 1.12537 5.7196V12.2819C1.12537 14.8085 3.19255 16.8757 5.71923 16.8757H12.2815C14.8082 16.8757 16.8754 14.8085 16.8754 12.2819V5.7196C16.8754 3.19292 14.8082 1.12573 12.2815 1.12573Z" fill="#709775"/>
<path d="M13.2684 5.72537C13.0731 5.72537 12.8823 5.66747 12.7199 5.55899C12.5576 5.45052 12.4311 5.29634 12.3563 5.11595C12.2816 4.93557 12.2621 4.73708 12.3002 4.54558C12.3382 4.35408 12.4323 4.17818 12.5703 4.04012C12.7084 3.90206 12.8843 3.80804 13.0758 3.76995C13.2673 3.73185 13.4658 3.7514 13.6462 3.82612C13.8266 3.90084 13.9807 4.02737 14.0892 4.18972C14.1977 4.35206 14.2556 4.54292 14.2556 4.73817C14.2559 4.86789 14.2305 4.99639 14.181 5.11628C14.1315 5.23618 14.0588 5.34512 13.9671 5.43685C13.8753 5.52857 13.7664 5.60128 13.6465 5.65079C13.5266 5.7003 13.3981 5.72564 13.2684 5.72537Z" fill="#709775"/>
<path d="M9.00018 6.37439C9.51938 6.37439 10.0269 6.52836 10.4586 6.81681C10.8903 7.10526 11.2268 7.51525 11.4255 7.99492C11.6242 8.4746 11.6762 9.00242 11.5749 9.51165C11.4736 10.0209 11.2236 10.4886 10.8564 10.8557C10.4893 11.2229 10.0215 11.4729 9.51232 11.5742C9.0031 11.6755 8.47527 11.6235 7.9956 11.4248C7.51592 11.2261 7.10593 10.8896 6.81748 10.4579C6.52903 10.0263 6.37507 9.51871 6.37507 8.99951C6.37581 8.30352 6.65263 7.63624 7.14477 7.1441C7.63691 6.65195 8.30419 6.37514 9.00018 6.37439ZM9.00018 5.06201C8.22142 5.06201 7.46015 5.29294 6.81263 5.7256C6.16511 6.15826 5.66043 6.77321 5.36241 7.4927C5.06439 8.21218 4.98641 9.00388 5.13834 9.76768C5.29027 10.5315 5.66528 11.2331 6.21595 11.7837C6.76662 12.3344 7.46822 12.7094 8.23202 12.8614C8.99582 13.0133 9.78752 12.9353 10.507 12.6373C11.2265 12.3393 11.8414 11.8346 12.2741 11.1871C12.7068 10.5396 12.9377 9.77828 12.9377 8.99951C12.9377 7.95522 12.5228 6.9537 11.7844 6.21528C11.046 5.47685 10.0445 5.06201 9.00018 5.06201Z" fill="#709775"/>
</svg>
