<svg width="18" height="18" viewBox="0 0 18 18" fill="none" xmlns="http://www.w3.org/2000/svg">
<path d="M12.2815 2.43824C13.151 2.44083 13.9842 2.78739 14.599 3.40223C15.2138 4.01707 15.5604 4.85022 15.563 5.71972V12.282C15.5604 13.1515 15.2138 13.9846 14.599 14.5995C13.9842 15.2143 13.151 15.5609 12.2815 15.5635H5.71923C4.84973 15.5609 4.01658 15.2143 3.40174 14.5995C2.78691 13.9846 2.44035 13.1515 2.43775 12.282V5.71972C2.44035 4.85022 2.78691 4.01707 3.40174 3.40223C4.01658 2.78739 4.84973 2.44083 5.71923 2.43824H12.2815ZM12.2815 1.12585H5.71923C3.19255 1.12585 1.12537 3.19304 1.12537 5.71972V12.282C1.12537 14.8087 3.19255 16.8759 5.71923 16.8759H12.2815C14.8082 16.8759 16.8754 14.8087 16.8754 12.282V5.71972C16.8754 3.19304 14.8082 1.12585 12.2815 1.12585Z" fill="#709775"/>
<path d="M13.2684 5.72524C13.0731 5.72524 12.8823 5.66735 12.7199 5.55887C12.5576 5.4504 12.4311 5.29622 12.3563 5.11583C12.2816 4.93545 12.2621 4.73695 12.3002 4.54546C12.3382 4.35396 12.4323 4.17806 12.5703 4.04C12.7084 3.90194 12.8843 3.80791 13.0758 3.76982C13.2673 3.73173 13.4658 3.75128 13.6462 3.826C13.8266 3.90072 13.9807 4.02725 14.0892 4.18959C14.1977 4.35194 14.2556 4.5428 14.2556 4.73805C14.2559 4.86777 14.2305 4.99626 14.181 5.11616C14.1315 5.23606 14.0588 5.345 13.9671 5.43672C13.8753 5.52845 13.7664 5.60115 13.6465 5.65067C13.5266 5.70018 13.3981 5.72552 13.2684 5.72524Z" fill="#709775"/>
<path d="M9.00018 6.37452C9.51938 6.37452 10.0269 6.52848 10.4586 6.81693C10.8903 7.10538 11.2268 7.51537 11.4255 7.99505C11.6242 8.47472 11.6762 9.00255 11.5749 9.51177C11.4736 10.021 11.2236 10.4887 10.8564 10.8559C10.4893 11.223 10.0215 11.473 9.51232 11.5743C9.0031 11.6756 8.47527 11.6236 7.9956 11.4249C7.51592 11.2262 7.10593 10.8898 6.81748 10.4581C6.52903 10.0264 6.37507 9.51883 6.37507 8.99963C6.37581 8.30364 6.65263 7.63636 7.14477 7.14422C7.63691 6.65207 8.30419 6.37526 9.00018 6.37452ZM9.00018 5.06213C8.22142 5.06213 7.46015 5.29306 6.81263 5.72572C6.16511 6.15838 5.66043 6.77333 5.36241 7.49282C5.06439 8.2123 4.98641 9.004 5.13834 9.7678C5.29027 10.5316 5.66528 11.2332 6.21595 11.7839C6.76662 12.3345 7.46822 12.7095 8.23202 12.8615C8.99582 13.0134 9.78752 12.9354 10.507 12.6374C11.2265 12.3394 11.8414 11.8347 12.2741 11.1872C12.7068 10.5397 12.9377 9.7784 12.9377 8.99963C12.9377 7.95534 12.5228 6.95383 11.7844 6.2154C11.046 5.47698 10.0445 5.06213 9.00018 5.06213Z" fill="#709775"/>
</svg>
