<svg width="90" height="90" viewBox="0 0 90 90" fill="none" xmlns="http://www.w3.org/2000/svg">
<path d="M16.875 41.25C18.3668 41.25 19.7976 40.6573 20.8525 39.6024C21.9074 38.5475 22.5 37.1168 22.5 35.625C22.5 34.1331 21.9074 32.7024 20.8525 31.6475C19.7976 30.5926 18.3668 30 16.875 30C15.3832 30 13.9524 30.5926 12.8975 31.6475C11.8426 32.7024 11.25 34.1331 11.25 35.625C11.25 37.1168 11.8426 38.5475 12.8975 39.6024C13.9524 40.6573 15.3832 41.25 16.875 41.25ZM83.1375 34.3875C83.1375 19.875 71.4 8.13745 56.8875 8.13745C49.9256 8.13745 43.2488 10.9031 38.326 15.8259C33.4031 20.7487 30.6375 27.4255 30.6375 34.3875C30.6375 47.4 40.0875 58.125 52.5 60.225V75H22.5V63.75H26.25V48.75C26.25 47.7554 25.8549 46.8016 25.1517 46.0983C24.4484 45.395 23.4946 45 22.5 45H11.25C10.2554 45 9.30161 45.395 8.59835 46.0983C7.89509 46.8016 7.5 47.7554 7.5 48.75V63.75H11.25V82.5H71.25V75H60V60.45C66.3772 59.6884 72.254 56.6153 76.5179 51.8124C80.7818 47.0095 83.1369 40.81 83.1375 34.3875Z" fill="#93B1D8"/>
</svg>
