<svg width="56" height="56" viewBox="0 0 56 56" fill="none" xmlns="http://www.w3.org/2000/svg">
<path d="M28 21.056C26.6266 21.056 25.2841 21.4633 24.1421 22.2263C23.0002 22.9893 22.1102 24.0738 21.5846 25.3426C21.059 26.6115 20.9215 28.0077 21.1894 29.3547C21.4574 30.7017 22.1187 31.939 23.0898 32.9101C24.061 33.8813 25.2983 34.5426 26.6453 34.8106C27.9923 35.0785 29.3885 34.941 30.6574 34.4154C31.9262 33.8898 33.0107 32.9998 33.7737 31.8579C34.5367 30.7159 34.944 29.3734 34.944 28C34.944 27.0881 34.7644 26.1851 34.4154 25.3426C34.0665 24.5002 33.555 23.7347 32.9101 23.0898C32.2653 22.445 31.4998 21.9335 30.6574 21.5846C29.8149 21.2356 28.9119 21.056 28 21.056ZM55.804 14.196C55.7893 12.0337 55.3911 9.8912 54.628 7.868C54.066 6.38753 53.1964 5.04306 52.0767 3.92332C50.9569 2.80358 49.6125 1.93401 48.132 1.372C46.1088 0.608899 43.9663 0.21073 41.804 0.196C38.192 -1.87755e-07 37.128 0 28 0C18.872 0 17.808 -1.87755e-07 14.196 0.196C12.0337 0.21073 9.8912 0.608899 7.868 1.372C6.38753 1.93401 5.04306 2.80358 3.92332 3.92332C2.80358 5.04306 1.93401 6.38753 1.372 7.868C0.608899 9.8912 0.21073 12.0337 0.196 14.196C-1.87755e-07 17.808 0 18.872 0 28C0 37.128 -1.87755e-07 38.192 0.196 41.804C0.226139 43.9739 0.623768 46.123 1.372 48.16C1.93152 49.6337 2.80036 50.9704 3.92 52.08C5.03494 53.2065 6.38229 54.076 7.868 54.628C9.8912 55.3911 12.0337 55.7893 14.196 55.804C17.808 56 18.872 56 28 56C37.128 56 38.192 56 41.804 55.804C43.9663 55.7893 46.1088 55.3911 48.132 54.628C49.6177 54.076 50.9651 53.2065 52.08 52.08C53.1996 50.9704 54.0685 49.6337 54.628 48.16C55.3904 46.1269 55.7885 43.9753 55.804 41.804C56 38.192 56 37.128 56 28C56 18.872 56 17.808 55.804 14.196ZM48.692 36.596C48.6021 38.3239 48.2334 40.0259 47.6 41.636C47.0564 42.9791 46.2483 44.1992 45.2238 45.2238C44.1992 46.2483 42.9791 47.0564 41.636 47.6C40.0106 48.1981 38.2992 48.529 36.568 48.58H19.432C17.7008 48.529 15.9894 48.1981 14.364 47.6C12.9755 47.084 11.7216 46.2608 10.696 45.192C9.68147 44.1875 8.89796 42.974 8.4 41.636C7.79956 40.0123 7.4777 38.2989 7.448 36.568V19.432C7.4777 17.7011 7.79956 15.9877 8.4 14.364C8.91599 12.9755 9.73917 11.7216 10.808 10.696C11.8169 9.68695 13.0291 8.90426 14.364 8.4C15.9894 7.80194 17.7008 7.47099 19.432 7.42H36.568C38.2992 7.47099 40.0106 7.80194 41.636 8.4C43.0245 8.91599 44.2784 9.73917 45.304 10.808C46.3185 11.8125 47.102 13.026 47.6 14.364C48.1981 15.9894 48.529 17.7008 48.58 19.432V28C48.58 33.768 48.776 34.356 48.692 36.568V36.596ZM44.212 15.764C43.8786 14.8596 43.353 14.0382 42.6714 13.3566C41.9898 12.675 41.1684 12.1494 40.264 11.816C39.0221 11.3855 37.7142 11.177 36.4 11.2H19.6C18.2791 11.2129 16.971 11.4594 15.736 11.928C14.8454 12.2462 14.0327 12.7504 13.352 13.407C12.6713 14.0635 12.1382 14.8575 11.788 15.736C11.3814 16.983 11.1827 18.2885 11.2 19.6V36.4C11.2278 37.7193 11.4738 39.025 11.928 40.264C12.2614 41.1684 12.787 41.9898 13.4686 42.6714C14.1502 43.353 14.9716 43.8786 15.876 44.212C17.0707 44.6514 18.3278 44.8971 19.6 44.94H36.4C37.7209 44.9271 39.029 44.6806 40.264 44.212C41.1684 43.8786 41.9898 43.353 42.6714 42.6714C43.353 41.9898 43.8786 41.1684 44.212 40.264C44.6806 39.029 44.9271 37.7209 44.94 36.4V19.6C44.9408 18.2778 44.6939 16.9672 44.212 15.736V15.764ZM28 38.696C26.5967 38.696 25.2072 38.4191 23.9111 37.8813C22.6149 37.3434 21.4377 36.5551 20.4467 35.5615C19.4557 34.5679 18.6705 33.3886 18.136 32.0911C17.6015 30.7935 17.3283 29.4033 17.332 28C17.332 25.8833 17.96 23.8143 19.1366 22.0547C20.3131 20.2952 21.9852 18.9243 23.9413 18.1155C25.8974 17.3068 28.0494 17.0966 30.125 17.5116C32.2006 17.9266 34.1064 18.9481 35.6011 20.4467C37.0959 21.9454 38.1123 23.8539 38.5219 25.9305C38.9314 28.0072 38.7156 30.1587 37.9018 32.1126C37.0879 34.0666 35.7126 35.7351 33.95 36.907C32.1874 38.0789 30.1167 38.7015 28 38.696ZM39.2 19.404C38.581 19.3385 38.0082 19.0462 37.5919 18.5835C37.1756 18.1208 36.9453 17.5204 36.9453 16.898C36.9453 16.2756 37.1756 15.6752 37.5919 15.2125C38.0082 14.7498 38.581 14.4575 39.2 14.392C39.819 14.4575 40.3918 14.7498 40.8081 15.2125C41.2244 15.6752 41.4547 16.2756 41.4547 16.898C41.4547 17.5204 41.2244 18.1208 40.8081 18.5835C40.3918 19.0462 39.819 19.3385 39.2 19.404Z" fill="black"/>
</svg>
